custom-analysis
version=1
nRows=6
nColumns=98
inDegrees=no

This file contains tibia displacement and acting force.

Units are S.I. units (seconds, meters, Newtons, ...)
Angles are in degrees.

endheader
time	APT	SIT	knee_angle	aACL_R_force	pACL_R_force	aPCL_R_force	pPCL_R_force	aMCL_R_force	mMCL_R_force	pMCL_R_force	aLCL_R_force	mLCL_R_force	pLCL_R_force	aPCL_L_force	pPCL_L_force	aMCL_L_force	aLCL_L_force	aACL_R_length	pACL_R_length	aPCL_R_length	pPCL_R_length	aMCL_R_length	mMCL_R_length	pMCL_R_length	aLCL_R_length	mLCL_R_length	pLCL_R_length	aPCL_L_length	pPCL_L_length	aMCL_L_length	aLCL_L_length	aACL_R_strain	pACL_R_strain	aPCL_R_strain	pPCL_R_strain	aMCL_R_strain	mMCL_R_strain	pMCL_R_strain	aLCL_R_strain	mLCL_R_strain	pLCL_R_strain	aPCL_L_strain	pPCL_L_strain	aMCL_L_strain	aLCL_L_strain	femur_lat_meniscii_r.femur_lat_r.force.X	femur_lat_meniscii_r.femur_lat_r.force.Y	femur_lat_meniscii_r.femur_lat_r.force.Z	femur_lat_meniscii_r.femur_lat_r.torque.X	femur_lat_meniscii_r.femur_lat_r.torque.Y	femur_lat_meniscii_r.femur_lat_r.torque.Z	femur_lat_meniscii_r.meniscus_lat_r.force.X	femur_lat_meniscii_r.meniscus_lat_r.force.Y	femur_lat_meniscii_r.meniscus_lat_r.force.Z	femur_lat_meniscii_r.meniscus_lat_r.torque.X	femur_lat_meniscii_r.meniscus_lat_r.torque.Y	femur_lat_meniscii_r.meniscus_lat_r.torque.Z	femur_med_meniscii_r.femur_med_r.force.X	femur_med_meniscii_r.femur_med_r.force.Y	femur_med_meniscii_r.femur_med_r.force.Z	femur_med_meniscii_r.femur_med_r.torque.X	femur_med_meniscii_r.femur_med_r.torque.Y	femur_med_meniscii_r.femur_med_r.torque.Z	femur_med_meniscii_r.meniscus_med_r.force.X	femur_med_meniscii_r.meniscus_med_r.force.Y	femur_med_meniscii_r.meniscus_med_r.force.Z	femur_med_meniscii_r.meniscus_med_r.torque.X	femur_med_meniscii_r.meniscus_med_r.torque.Y	femur_med_meniscii_r.meniscus_med_r.torque.Z	femur_med_tibia_r.tibia_upper_r.force.X	femur_med_tibia_r.tibia_upper_r.force.Y	femur_med_tibia_r.tibia_upper_r.force.Z	femur_med_tibia_r.tibia_upper_r.torque.X	femur_med_tibia_r.tibia_upper_r.torque.Y	femur_med_tibia_r.tibia_upper_r.torque.Z	femur_med_tibia_r.femur_med_r.force.X	femur_med_tibia_r.femur_med_r.force.Y	femur_med_tibia_r.femur_med_r.force.Z	femur_med_tibia_r.femur_med_r.torque.X	femur_med_tibia_r.femur_med_r.torque.Y	femur_med_tibia_r.femur_med_r.torque.Z	femur_lat_tibia_r.tibia_upper_r.force.X	femur_lat_tibia_r.tibia_upper_r.force.Y	femur_lat_tibia_r.tibia_upper_r.force.Z	femur_lat_tibia_r.tibia_upper_r.torque.X	femur_lat_tibia_r.tibia_upper_r.torque.Y	femur_lat_tibia_r.tibia_upper_r.torque.Z	femur_lat_tibia_r.femur_lat_r.force.X	femur_lat_tibia_r.femur_lat_r.force.Y	femur_lat_tibia_r.femur_lat_r.force.Z	femur_lat_tibia_r.femur_lat_r.torque.X	femur_lat_tibia_r.femur_lat_r.torque.Y	femur_lat_tibia_r.femur_lat_r.torque.Z	femur_lat_meniscii_force_r	femur_med_meniscii_force_r	femur_lat_tibia_force_r	femur_med_tibia_force_r
      0.10738571	      0.00808976	      0.00738623	     27.76377927	      5.60211703	    -12.52488515	      0.00000000	     59.17828525	      0.00000000	      0.00000000	    -39.27765899	      0.00000000	      0.00000000	      0.00000000	      0.00000000	      0.00000000	      0.00000001	      0.00000000	      0.03229720	      0.02528556	      0.03108403	      0.03018469	      0.05720045	      0.05948067	      0.05882504	      0.05364086	      0.05056805	      0.04703386	      0.01525851	      0.01651186	      0.06550154	      0.04489616	      0.04166041	      0.00905323	     -0.00036243	      0.00993340	     -0.04708793	     -0.00523182	      0.00165231	     -0.04173735	     -0.10210746	     -0.10142457	      0.00000079	     -0.32847694	      0.00000060	     -0.00000086	     73.48439322	    319.14493475	     45.71510128	    -26.50142511	      1.93265708	     28.98940274	    -73.48439322	   -319.14493475	    -45.71510128	      9.74204651	     -2.53983231	      2.18912747	    -37.48520953	     79.80719488	     10.99829967	     -2.59845751	      0.89962904	    -15.33709817	     37.48520953	    -79.80719488	    -10.99829967	     -1.42680347	     -0.92230976	      1.78248784	    -95.94118121	   -483.92896347	    103.16926566	    -11.28959078	      2.29994376	      0.32404023	     95.94118121	    483.92896347	   -103.16926566	     51.80552361	     -1.51524654	     41.03405353	    -24.98249951	    -90.66844200	    -22.31160315	      3.08094396	     -0.86849457	      0.07909599	     24.98249951	     90.66844200	     22.31160315	    -11.40609029	      0.59649999	     10.34795791	    330.67100857	     88.85545500	     96.65763960	    504.01969139
      0.10825827	      0.00815713	      0.00750485	     28.15849900	      5.51879430	    -12.42384624	     25.90384485	     58.17743832	      0.00000000	      0.00000000	    -40.93456923	      0.00000000	      0.00000000	      0.00000000	      0.00000000	      0.00000000	      0.00000001	      0.00000000	      0.03228084	      0.02525734	      0.03114800	      0.03022772	      0.05723073	      0.05947303	      0.05877719	      0.05363307	      0.05053590	      0.04697758	      0.01525851	      0.01651186	      0.06550154	      0.04489616	      0.04113259	      0.00792706	      0.00169478	      0.01137313	     -0.04658359	     -0.00535958	      0.00083767	     -0.04187648	     -0.10267834	     -0.10249987	      0.00000079	     -0.32847694	      0.00000060	     -0.00000086	     77.05236119	    324.81672529	     44.16097457	    -25.98367411	      1.99783522	     30.41595268	    -77.05236119	   -324.81672529	    -44.16097457	      9.81869944	     -2.60104019	      2.22554910	    -36.33645684	     80.40566485	     11.91148687	     -2.96164608	      0.87075533	    -14.86339556	     36.33645684	    -80.40566485	    -11.91148687	     -1.41436245	     -0.90783843	      1.76453091	   -102.92115263	   -488.33787065	    103.58166946	    -11.37919658	      2.42868748	      0.18457903	    102.92115263	    488.33787065	   -103.58166946	     52.04440101	     -1.63765214	     43.95066470	    -24.48570743	    -85.19651019	    -21.02852028	      2.89354863	     -0.84543601	      0.05660900	     24.48570743	     85.19651019	     21.02852028	    -10.74375621	      0.58504403	     10.13918088	    336.73901329	     89.03534442	     91.10539985	    509.70167924
      0.10913082	      0.00822930	      0.00762606	     28.55601597	      5.47612465	    -12.27293988	     25.66578440	     58.87056716	      0.00000000	      0.00000000	      0.00000000	      0.00000000	      0.00000000	      0.00000000	      0.00000000	      0.00000000	      0.00000001	      0.00000000	      0.03226538	      0.02523000	      0.03120902	      0.03026734	      0.05726010	      0.05946401	      0.05872799	      0.05362376	      0.05050202	      0.04691940	      0.01525851	      0.01651186	      0.06550154	      0.04489616	      0.04063396	      0.00683575	      0.00365709	      0.01269879	     -0.04609427	     -0.00551045	     -0.00000014	     -0.04204287	     -0.10327995	     -0.10361135	      0.00000079	     -0.32847694	      0.00000060	     -0.00000086	     77.40682283	    327.95041228	     43.26664291	    -25.68460499	      1.98517944	     30.50867101	    -77.40682283	   -327.95041228	    -43.26664291	      9.85655792	     -2.58377947	      2.34596859	    -35.07119713	     80.76472113	     12.91649311	     -3.36918389	      0.83947993	    -14.34229283	     35.07119713	    -80.76472113	    -12.91649311	     -1.39308530	     -0.89229452	      1.74189704	   -110.10936876	   -499.37686738	    106.68382551	    -11.67643619	      2.59023312	      0.10976494	    110.10936876	    499.37686738	   -106.68382551	     53.53434459	     -1.76548282	     46.95274964	    -23.83397450	    -80.77381264	    -19.83198249	      2.73354264	     -0.81916130	      0.05036396	     23.83397450	     80.77381264	     19.83198249	    -10.13907485	      0.56998380	      9.86444321	    339.72826130	     88.99306064	     86.52037146	    522.38182146
      0.11023485	      0.00832630	      0.00778378	     29.06276858	      5.41519326	    -12.05965583	     25.84289978	     59.53647025	      0.00000000	      0.00000000	      0.00000000	      0.00000000	      0.00000000	      0.00000000	      0.00000000	      0.00000000	      0.00000001	      0.00000000	      0.03224609	      0.02519572	      0.03128197	      0.03031256	      0.05729514	      0.05944985	      0.05866301	      0.05360934	      0.05045621	      0.04684265	      0.01525851	      0.01651186	      0.06550154	      0.04489616	      0.04001188	      0.00546812	      0.00600330	      0.01421176	     -0.04551044	     -0.00574734	     -0.00110661	     -0.04230050	     -0.10409330	     -0.10507775	      0.00000079	     -0.32847694	      0.00000060	     -0.00000086	     79.27104239	    331.88958937	     41.39817620	    -24.99240687	      2.00065073	     31.21732657	    -79.27104239	   -331.88958937	    -41.39817620	      9.87287468	     -2.58911406	      2.45193277	    -31.87868265	     82.25700214	     13.91683300	     -3.73165060	      0.76228733	    -13.01109717	     31.87868265	    -82.25700214	    -13.91683300	     -1.41328848	     -0.83592063	      1.66102738	   -123.25500005	   -522.56946100	    111.22881305	    -12.21231301	      2.86036519	     -0.05361284	    123.25500005	    522.56946100	   -111.22881305	     55.83656682	     -1.99275758	     52.47072031	    -22.98375619	    -76.41939130	    -18.75694055	      2.57934327	     -0.78990391	      0.05730708	     22.98375619	     76.41939130	     18.75694055	     -9.58672150	      0.55072189	      9.50363472	    343.72722716	     89.30925512	     81.97560145	    548.30875012
      0.11133887	      0.00842867	      0.00794287	     29.57355794	      5.98406680	    -11.21664763	     27.93977433	     63.86430760	      0.00000000	      0.00000000	      0.00000000	      0.00000000	      0.00000000	      0.00000000	      0.00000000	      0.00000000	      0.00000001	      0.00000000	      0.03222872	      0.02516338	      0.03135385	      0.03035595	      0.05733137	      0.05943618	      0.05859855	      0.05359574	      0.05041090	      0.04676620	      0.01525851	      0.01651186	      0.06550154	      0.04489616	      0.03945176	      0.00417744	      0.00831466	      0.01566355	     -0.04490699	     -0.00597598	     -0.00220415	     -0.04254342	     -0.10489790	     -0.10653826	      0.00000079	     -0.32847694	      0.00000060	     -0.00000086	     77.51678847	    324.69339789	     42.18822309	    -25.15923361	      1.94759455	     30.47518382	    -77.51678847	   -324.69339789	    -42.18822309	      9.70898106	     -2.54543244	      2.51430643	    -29.52129818	     80.46270609	     15.05054475	     -4.24413455	      0.69870555	    -12.05301155	     29.52129818	    -80.46270609	    -15.05054475	     -1.34134995	     -0.79293942	      1.60100174	   -133.40622776	   -535.28532521	    114.49908025	    -12.53909324	      3.08062121	     -0.16829031	    133.40622776	    535.28532521	   -114.49908025	     57.42044299	     -2.17387791	     56.69990553	    -21.94324577	    -70.28345727	    -17.42202443	      2.37343163	     -0.75213593	      0.04515636	     21.94324577	     70.28345727	     17.42202443	     -8.88659934	      0.52621560	      9.06965703	    336.47362645	     87.01880840	     75.66239050	    563.41604553
      0.11244290	      0.00853450	      0.00810250	     30.08801512	      5.76240802	    -11.09937351	     30.74038929	     68.75306995	      0.00000000	      0.00000000	      0.00000000	      0.00000000	      0.00000000	      0.00000000	      0.00000000	      0.00000000	      0.00000001	      0.00000000	      0.03221283	      0.02513264	      0.03142618	      0.03039908	      0.05736949	      0.05942381	      0.05853543	      0.05358386	      0.05036697	      0.04669101	      0.01525851	      0.01651186	      0.06550154	      0.04489616	      0.03893926	      0.00295075	      0.01064090	      0.01710677	     -0.04427196	     -0.00618284	     -0.00327901	     -0.04275560	     -0.10567792	     -0.10797480	      0.00000079	     -0.32847694	      0.00000060	     -0.00000086	     76.10970873	    323.59671346	     43.37267933	    -25.64866212	      1.91485185	     29.86645682	    -76.10970873	   -323.59671346	    -43.37267933	      9.73022709	     -2.52766193	      2.63904672	    -27.96095637	     78.96657003	     16.12330229	     -4.72337110	      0.65846102	    -11.42702000	     27.96095637	    -78.96657003	    -16.12330229	     -1.27859171	     -0.77129308	      1.57105768	   -141.58139858	   -540.11297148	    115.71355866	    -12.65389428	      3.25690389	     -0.25328653	    141.58139858	    540.11297148	   -115.71355866	     57.99090998	     -2.32636523	     60.06887057	    -19.69671417	    -62.44072504	    -15.52241924	      2.10517235	     -0.67742621	      0.05414867	     19.69671417	     62.44072504	     15.52241924	     -7.91121521	      0.47352495	      8.13347384	    335.24425429	     85.30823607	     67.28855915	    570.22534321
